<svg xmlns="http://www.w3.org/2000/svg" width="150" height="23.98" viewBox="0 0 150 23.98"><defs><style>.cls-1{fill:#ffffff;}</style></defs><g id="Layer_2" data-name="Layer 2"><g id="Content"><path class="cls-1" d="M52.37,18.685a.6.6,0,0,1,.582.65c0,.626-.6.694-.895.694a1.836,1.836,0,0,1-2.038-1.589c-.022-.135-.045-.224-.111-.224-.023,0-.045.023-.09.068a4.661,4.661,0,0,1-3.738,1.88A4.986,4.986,0,0,1,41,14.816,5.01,5.01,0,0,1,46.077,9.51a4.5,4.5,0,0,1,3.537,1.611c.113.156.18.268.225.268s.067-.112.067-.4c0-1.141.022-2.73.022-4.029,0-1.522,0-1.9-.9-1.9a2.76,2.76,0,0,0-.358.023h-.045A.575.575,0,0,1,48,4.5a.664.664,0,0,1,.694-.672c.223,0,.537-.023.738-.023a1.628,1.628,0,0,1,1.791,1.857v.09c-.022,1.881-.043,5.507-.043,8.573,0,1.142,0,2.171,0,3.044,0,1.075.381,1.343.873,1.343.112,0,.2-.023.291-.023Zm-2.463-3.871a3.821,3.821,0,0,0-3.784-4.14c-2.261,0-3.8,1.567-3.8,4.141,0,2.552,1.567,4.119,3.805,4.118A3.826,3.826,0,0,0,49.907,14.814Z"/><path class="cls-1" d="M62.083,18.527c-.023-.068-.045-.113-.089-.113a.12.12,0,0,0-.09.068,4.137,4.137,0,0,1-3.4,1.725,3.334,3.334,0,0,1-3.627-3.089,2.99,2.99,0,0,1,2.4-2.776,35.776,35.776,0,0,1,4.14-.918c.269-.045.359-.113.359-.269,0-.113.022-.246.021-.359,0-1.231-.514-2.192-2.327-2.192a3.524,3.524,0,0,0-2.619,1.075.624.624,0,0,1-.471.223.606.606,0,0,1-.626-.6c0-.851,1.88-1.813,3.8-1.814,2.082,0,3.493.918,3.494,3.425a5.907,5.907,0,0,1-.023.626c-.067.739-.112,1.9-.111,2.753,0,1.634.157,2.171,1.052,2.485a.568.568,0,0,1,.381.559.6.6,0,0,1-.6.626A1.9,1.9,0,0,1,62.083,18.527ZM61.746,15.1v-.291c0-.179-.067-.246-.223-.246h-.068c-3.514.56-5.372,1.008-5.371,2.575a2.14,2.14,0,0,0,2.395,1.88C59.621,19.019,61.747,18.549,61.746,15.1Z"/><path class="cls-1" d="M69.535,10.915c-.358,0-.358.044-.358.313,0,.851-.067,3.156-.067,4.813,0,1.745.046,2.932,1.791,2.931a6.164,6.164,0,0,0,.627-.045h.09a.556.556,0,0,1,.538.582c0,.582-.538.694-1.432.7-2.866,0-2.866-2.439-2.866-3.425,0-1.432.042-4.163.042-5.26v-.358c0-.223-.066-.246-.223-.246H66.356a.594.594,0,1,1,0-1.186h1.3c.2,0,.246-.023.246-.224,0-.09.022-1.164.022-1.948V7a.65.65,0,1,1,1.3.044c0,.649-.045,2.44-.045,2.44,0,.246.045.246.336.246H71.5a.575.575,0,0,1,.627.582.582.582,0,0,1-.627.6Z"/><path class="cls-1" d="M81.51,18.522c-.022-.067-.045-.112-.089-.112a.121.121,0,0,0-.09.067,4.135,4.135,0,0,1-3.4,1.725A3.333,3.333,0,0,1,74.3,17.113,2.991,2.991,0,0,1,76.7,14.337a36.166,36.166,0,0,1,4.141-.918c.268-.045.358-.112.358-.269,0-.111.023-.246.022-.358,0-1.231-.515-2.193-2.328-2.193a3.528,3.528,0,0,0-2.619,1.075.622.622,0,0,1-.47.224.607.607,0,0,1-.627-.6c0-.851,1.88-1.813,3.8-1.814,2.082,0,3.493.917,3.493,3.424a6.2,6.2,0,0,1-.022.627c-.067.738-.112,1.9-.111,2.753,0,1.634.157,2.171,1.052,2.484a.57.57,0,0,1,.381.559.606.606,0,0,1-.6.627A1.905,1.905,0,0,1,81.51,18.522ZM81.174,15.1v-.291c0-.18-.068-.247-.224-.247h-.067c-3.514.561-5.372,1.009-5.371,2.576a2.139,2.139,0,0,0,2.394,1.88C79.048,19.015,81.174,18.545,81.174,15.1Z"/><path class="cls-1" d="M92.588,10.058c-.022.471-.022.784-.022,1.12,0,.313,0,.649.022,1.164v.045a.551.551,0,0,1-.559.537.575.575,0,0,1-.627-.582c0-1.791-1.992-1.79-2.126-1.79-1.165,0-1.814.7-1.814,1.433a1.724,1.724,0,0,0,1.1,1.477c.627.291,1.7.738,2.395,1.1a3.2,3.2,0,0,1,1.993,2.775c0,1.231-.985,2.888-3.536,2.889a3.506,3.506,0,0,1-2.238-.738.285.285,0,0,0-.157-.09c-.045,0-.067.045-.067.112,0,.559-.269.627-.537.627a.54.54,0,0,1-.582-.537v-.045c.022-.493.043-.829.043-1.164s-.021-.672-.044-1.208v-.045a.589.589,0,0,1,.627-.583.574.574,0,0,1,.6.6c0,.157-.045.269-.045.426,0,.738,1.119,1.476,2.4,1.476,1.141,0,2.237-.649,2.237-1.724,0-1.186-.985-1.722-3.582-2.8a2.706,2.706,0,0,1-1.814-2.484c0-1.3,1.052-2.574,3.044-2.574a3.6,3.6,0,0,1,1.97.6.165.165,0,0,0,.135.045c.112,0,.09-.2.112-.269a.5.5,0,0,1,.514-.358.523.523,0,0,1,.56.538Z"/><path class="cls-1" d="M105.146,19.905c-.581-.023-1.118-.045-1.611-.045s-.985.023-1.5.045h-.045a.569.569,0,0,1-.6-.581.525.525,0,0,1,.6-.583c.582,0,.582-.134.582-.157a.17.17,0,0,0-.045-.09c-1.186-1.163-3.023-2.864-3.716-3.579a.8.8,0,0,0-.672-.269c-.336,0-.358.2-.358,1.365,0,.537,0,1.254.023,2.328a.342.342,0,0,0,.381.38,5.747,5.747,0,0,0,.626-.022h.023a.606.606,0,1,1,0,1.209h-.023c-.582-.022-1.164-.045-1.746-.044-.559,0-1.1.022-1.611.045a.579.579,0,0,1-.672-.582.616.616,0,0,1,.649-.627h.022c.269,0,.314.022.672.022a.352.352,0,0,0,.38-.38c.044-2.351.066-5.372.065-8.1,0-1.567-.023-3.067-.024-4.276,0-.626-.178-.872-.738-.9h-.515a.61.61,0,0,1-.626-.626c0-.582.4-.649,1.186-.649,1.835,0,1.992,1.186,1.992,1.677,0,2.888-.043,7.633-.043,7.633a.337.337,0,0,0,.381.359c.246,0,.336-.023,3.871-2.463.068-.045.09-.09.09-.112,0-.045-.045-.068-.157-.068-.4,0-.94,0-.94-.536a.57.57,0,0,1,.6-.583h.045c.56.023,1.052.023,1.567.023.492,0,1.03,0,1.612-.024a.546.546,0,0,1,.649.583.589.589,0,0,1-.627.581h-.022c-.314,0-.134-.022-.448-.022a1.065,1.065,0,0,0-.559.2c-1.321.9-3.044,2.06-4.14,2.777-.135.089-.18.156-.18.223,0,.157.582.694,4.634,4.409a.831.831,0,0,0,.649.268c.09,0,.2-.022.336-.022a.553.553,0,0,1,.627.581.6.6,0,0,1-.626.628Z"/><path class="cls-1" d="M112.554,20.194a5,5,0,0,1-5.06-5.282,5.117,5.117,0,0,1,4.99-5.417,4.17,4.17,0,0,1,4.411,3.669c0,.829-.492,1.455-1.633,1.5-.516.022-1.277.022-2.1.022-1.68,0-3.582-.021-4.074-.021-.224,0-.269.089-.269.4a3.656,3.656,0,0,0,3.761,3.938,4.008,4.008,0,0,0,3.246-1.478.631.631,0,0,1,.447-.2.685.685,0,0,1,.672.649C116.941,18.491,115.375,20.193,112.554,20.194Zm-.047-9.581a3.624,3.624,0,0,0-3.513,2.755c0,.223.2.223,2.8.223,1.164,0,2.418,0,3.044-.023.537-.022.739-.269.739-.627A2.812,2.812,0,0,0,112.507,10.613Z"/><path class="cls-1" d="M122.423,10.9c-.358,0-.358.044-.358.313,0,.85-.067,3.156-.067,4.812,0,1.746.046,2.932,1.792,2.932a6.145,6.145,0,0,0,.626-.045h.09a.554.554,0,0,1,.537.582c0,.582-.536.694-1.432.694-2.865,0-2.866-2.439-2.866-3.424,0-1.432.043-4.163.043-5.26v-.358c0-.224-.066-.246-.223-.246h-1.321a.594.594,0,1,1,0-1.186h1.3c.2,0,.246-.022.246-.224,0-.089.022-1.164.022-1.947V6.986a.65.65,0,1,1,1.3.044c0,.649-.045,2.44-.045,2.44,0,.246.046.246.336.246h1.992a.594.594,0,1,1,0,1.187Z"/><path class="cls-1" d="M132.43,20.167a5.089,5.089,0,0,1-5.262-5.282,5.064,5.064,0,0,1,7.565-4.814c.045.023.068.045.112.045.068,0,.09-.135.113-.246.022-.269.29-.381.536-.381a.578.578,0,0,1,.649.56v.045c-.021.47-.021.806-.021,1.164,0,.335,0,.694.021,1.208v.045a.577.577,0,0,1-.648.56.592.592,0,0,1-.627-.537c-.023-.47.045-.739-.224-1.053a2.94,2.94,0,0,0-2.283-.916,3.956,3.956,0,0,0-3.894,4.231,3.922,3.922,0,0,0,3.895,4.162,3.521,3.521,0,0,0,2.865-1.3.706.706,0,0,1,.582-.335.716.716,0,0,1,.716.693C136.525,18.666,134.848,20.166,132.43,20.167Z"/><path class="cls-1" d="M149.329,19.9c-.582-.023-1.164-.045-1.746-.045-.559,0-1.1.022-1.611.046a.58.58,0,0,1-.672-.583.615.615,0,0,1,.648-.626h.023c.291,0,.313.022.671.021a.346.346,0,0,0,.358-.38c0-.739.023-1.589.022-2.418,0-1.164-.022-2.216-.045-2.641a2.512,2.512,0,0,0-2.575-2.64,3.27,3.27,0,0,0-3.334,2.933c0,.425-.022,1.1-.022,1.9,0,.829.023,1.813.023,2.865a.342.342,0,0,0,.381.381,5.5,5.5,0,0,0,.626-.023A.607.607,0,1,1,142.1,19.9h-.022c-.583-.022-1.187-.045-1.746-.045s-1.119.024-1.634.046a.579.579,0,0,1-.672-.582.616.616,0,0,1,.649-.627h.022c.291,0,.358.023.716.023a.336.336,0,0,0,.358-.381c.023-1.814.044-4.634.044-7.32,0-1.9-.023-3.716-.024-5.059,0-.581-.179-.894-.761-.917a4.229,4.229,0,0,0-.492.023h-.023a.611.611,0,0,1-.626-.627c0-.381.178-.671,1.141-.671a4.817,4.817,0,0,1,.56.044,1.56,1.56,0,0,1,1.521,1.7q0,.6,0,1.276c0,1.813-.021,3.827-.021,4.141,0,.067.022.112.044.112s.045-.023.09-.068a4.193,4.193,0,0,1,3.312-1.523,3.546,3.546,0,0,1,3.739,3.581c.023.94.046,3.514.046,5.282,0,.246.112.4.38.4.336,0,.314-.022.628-.022h.022a.606.606,0,1,1,0,1.209Z"/><path class="cls-1" d="M32.02,18.349l-7.078-4.8V2.238A2.241,2.241,0,0,0,22.7,0H2.238A2.241,2.241,0,0,0,0,2.238V17.126a2.241,2.241,0,0,0,2.238,2.238H11.9L8.257,23.033a.555.555,0,1,0,.788.783l3.426-3.448L15.9,23.816a.555.555,0,1,0,.788-.783L13.04,19.365H22.7a2.241,2.241,0,0,0,2.239-2.238V14.889L31.4,19.268a.555.555,0,0,0,.771-.147A.556.556,0,0,0,32.02,18.349Zm-8.189-5.556-3.8-2.576a.556.556,0,0,0-.623.92l4.42,3v2.99A1.129,1.129,0,0,1,22.7,18.254H2.238a1.129,1.129,0,0,1-1.127-1.128V2.238A1.129,1.129,0,0,1,2.238,1.111H22.7a1.129,1.129,0,0,1,1.128,1.127Z"/></g></g></svg>